<?xml version="1.0" encoding="UTF-8"?>
<svg id="_Слой_1" data-name="Слой 1" xmlns="http://www.w3.org/2000/svg" viewBox="0 0 283.46 283.46">
  <defs>
    <style>
      .cls-1 {
        fill: #fff;
      }
    </style>
  </defs>
  <path class="cls-1" d="m135.51,1.99c-8.34,4.24-8.34,3.71-8.34,78.8v67.8l-17.75-17.35c-17.62-17.35-17.75-17.48-23.98-17.48-5.03,0-6.89.66-10.07,3.84-3.18,3.18-3.84,5.03-3.84,10.2v6.36l31.53,31.39c33.91,33.9,35.63,35.09,44.37,30.99,2.38-1.06,18.01-15.63,34.44-32.31l30.07-30.19v-6.22c0-5.16-.66-7.02-3.84-10.2s-5.03-3.84-10.2-3.84q-6.23,0-23.84,17.61l-17.75,17.48v-67.94c0-75.62.13-74.82-8.61-78.93-5.43-2.65-6.89-2.65-12.19,0Z"/>
  <path class="cls-1" d="m8.34,171.5c-7.68,3.84-8.34,7.42-8.34,41.19s1.19,41.05,7.15,50.32c6.09,9.53,14.17,15.36,25.56,18.28,11.26,2.91,206.77,2.91,218.03,0,8.48-2.25,15.76-6.49,20.93-12.05,10.33-11.52,11.79-18.67,11.79-56.55,0-34.03-.66-37.48-8.61-41.19-5.43-2.65-6.49-2.65-11.92,0-7.95,3.71-8.61,7.02-8.61,42.91v32.05l-3.84,3.84-3.84,3.84H36.82l-3.84-3.84-3.84-3.84v-32.05c0-35.89-.66-39.2-8.61-42.91-5.43-2.65-6.89-2.65-12.19,0Z"/>
</svg>